<svg width="15" height="15" viewBox="0 0 15 15" fill="none" xmlns="http://www.w3.org/2000/svg">
<g id="logo">
<path id="instagram" d="M7.87567 0.5C5.94062 0.5 5.69777 0.508461 4.93776 0.543047C4.17924 0.577782 3.66148 0.697869 3.20845 0.874066C2.73983 1.05605 2.34231 1.29949 1.94627 1.69568C1.54994 2.09171 1.3065 2.48923 1.12392 2.95771C0.947275 3.41089 0.82704 3.92879 0.792899 4.68702C0.758906 5.44703 0.75 5.69002 0.75 7.62507C0.75 9.56013 0.75861 9.80223 0.793047 10.5622C0.827931 11.3208 0.948018 11.8385 1.12407 12.2916C1.3062 12.7602 1.54964 13.1577 1.94582 13.5537C2.34171 13.9501 2.73923 14.1941 3.20756 14.3761C3.66089 14.5523 4.17879 14.6724 4.93717 14.7071C5.69718 14.7417 5.93987 14.7501 7.87478 14.7501C9.80998 14.7501 10.0521 14.7417 10.8121 14.7071C11.5706 14.6724 12.089 14.5523 12.5423 14.3761C13.0108 14.1941 13.4077 13.9501 13.8036 13.5537C14.1999 13.1577 14.4434 12.7602 14.6259 12.2917C14.8011 11.8385 14.9213 11.3206 14.957 10.5624C14.9911 9.80238 15 9.56013 15 7.62507C15 5.69002 14.9911 5.44718 14.957 4.68717C14.9213 3.92865 14.8011 3.41089 14.6259 2.95785C14.4434 2.48923 14.1999 2.09171 13.8036 1.69568C13.4072 1.29934 13.0109 1.0559 12.5419 0.874066C12.0876 0.697869 11.5696 0.577782 10.8111 0.543047C10.051 0.508461 9.80909 0.5 7.87344 0.5H7.87567ZM7.23649 1.784C7.4262 1.7837 7.63787 1.784 7.87567 1.784C9.77806 1.784 10.0035 1.79083 10.7548 1.82497C11.4495 1.85673 11.8265 1.97281 12.0777 2.07034C12.4102 2.19948 12.6472 2.35386 12.8965 2.60323C13.1458 2.85261 13.3002 3.09011 13.4297 3.42262C13.5272 3.67348 13.6434 4.05051 13.675 4.74521C13.7092 5.49631 13.7166 5.72194 13.7166 7.62344C13.7166 9.52495 13.7092 9.75057 13.675 10.5017C13.6433 11.1964 13.5272 11.5734 13.4297 11.8243C13.3005 12.1568 13.1458 12.3935 12.8965 12.6428C12.6471 12.8921 12.4103 13.0465 12.0777 13.1757C11.8268 13.2736 11.4495 13.3894 10.7548 13.4212C10.0037 13.4553 9.77806 13.4627 7.87567 13.4627C5.97312 13.4627 5.74765 13.4553 4.99654 13.4212C4.30185 13.3891 3.92481 13.273 3.67351 13.1755C3.341 13.0464 3.1035 12.892 2.85412 12.6426C2.60475 12.3932 2.45037 12.1563 2.32093 11.8237C2.22341 11.5728 2.10718 11.1958 2.07556 10.5011C2.04142 9.74998 2.03459 9.52435 2.03459 7.62166C2.03459 5.71897 2.04142 5.49453 2.07556 4.74343C2.10733 4.04873 2.22341 3.6717 2.32093 3.42054C2.45007 3.08803 2.60475 2.85053 2.85412 2.60115C3.1035 2.35178 3.341 2.1974 3.67351 2.06796C3.92467 1.96999 4.30185 1.85421 4.99654 1.8223C5.65383 1.79261 5.90855 1.7837 7.23649 1.78222V1.784ZM11.679 2.96706C11.2069 2.96706 10.824 3.34958 10.824 3.82177C10.824 4.2938 11.2069 4.67678 11.679 4.67678C12.151 4.67678 12.534 4.2938 12.534 3.82177C12.534 3.34973 12.151 2.96676 11.679 2.96676V2.96706ZM7.87567 3.96605C5.85497 3.96605 4.21665 5.60437 4.21665 7.62507C4.21665 9.64577 5.85497 11.2834 7.87567 11.2834C9.89637 11.2834 11.5341 9.64577 11.5341 7.62507C11.5341 5.60437 9.89622 3.96605 7.87552 3.96605H7.87567ZM7.87567 5.25005C9.18727 5.25005 10.2507 6.31332 10.2507 7.62507C10.2507 8.93668 9.18727 10.0001 7.87567 10.0001C6.56391 10.0001 5.50064 8.93668 5.50064 7.62507C5.50064 6.31332 6.56391 5.25005 7.87567 5.25005Z" fill="#333332"/>
</g>
</svg>
