<svg width="34" height="33" viewBox="0 0 34 33" fill="none" xmlns="http://www.w3.org/2000/svg">
<g id="instagram">
<path id="instagram_2" d="M17.0015 0C12.5204 0 11.958 0.0195943 10.198 0.0996889C8.4414 0.180127 7.24238 0.458224 6.19325 0.866259C5.10802 1.2877 4.18744 1.85146 3.27031 2.76894C2.35249 3.68607 1.78873 4.60664 1.36591 5.69153C0.956848 6.74101 0.678408 7.94036 0.599345 9.69626C0.520625 11.4563 0.5 12.019 0.5 16.5002C0.5 20.9813 0.519938 21.542 0.599689 23.302C0.680471 25.0586 0.958567 26.2576 1.36626 27.3068C1.78804 28.392 2.3518 29.3126 3.26928 30.2297C4.18607 31.1475 5.10664 31.7126 6.19118 32.1341C7.24101 32.5421 8.44036 32.8202 10.1966 32.9007C11.9566 32.9807 12.5187 33.0003 16.9995 33.0003C21.481 33.0003 22.0417 32.9807 23.8017 32.9007C25.5583 32.8202 26.7586 32.5421 27.8085 32.1341C28.8934 31.7126 29.8126 31.1475 30.7293 30.2297C31.6472 29.3126 32.2109 28.392 32.6337 27.3071C33.0394 26.2576 33.3178 25.0583 33.4003 23.3024C33.4794 21.5424 33.5 20.9813 33.5 16.5002C33.5 12.019 33.4794 11.4566 33.4003 9.6966C33.3178 7.94002 33.0394 6.74101 32.6337 5.69187C32.2109 4.60664 31.6472 3.68607 30.7293 2.76894C29.8115 1.85111 28.8937 1.28736 27.8074 0.866259C26.7556 0.458224 25.5559 0.180127 23.7993 0.0996889C22.0393 0.0195943 21.4789 0 16.9964 0H17.0015ZM15.5213 2.97347C15.9607 2.97278 16.4509 2.97347 17.0015 2.97347C21.4071 2.97347 21.9293 2.98928 23.669 3.06834C25.2778 3.14191 26.1509 3.41072 26.7325 3.63657C27.5025 3.93563 28.0515 4.29314 28.6287 4.87064C29.2062 5.44815 29.5637 5.99816 29.8634 6.76816C30.0893 7.34911 30.3584 8.22224 30.4317 9.83101C30.5107 11.5704 30.5279 12.0929 30.5279 16.4964C30.5279 20.8999 30.5107 21.4224 30.4317 23.1618C30.3581 24.7705 30.0893 25.6437 29.8634 26.2246C29.5644 26.9946 29.2062 27.5429 28.6287 28.1201C28.0512 28.6976 27.5029 29.0551 26.7325 29.3541C26.1516 29.581 25.2778 29.8492 23.669 29.9227C21.9296 30.0018 21.4071 30.019 17.0015 30.019C12.5957 30.019 12.0735 30.0018 10.3341 29.9227C8.72534 29.8485 7.8522 29.5797 7.27023 29.3538C6.50022 29.0547 5.95021 28.6972 5.37271 28.1197C4.7952 27.5422 4.4377 26.9936 4.13794 26.2232C3.9121 25.6423 3.64294 24.7692 3.56972 23.1604C3.49066 21.421 3.47484 20.8985 3.47484 16.4923C3.47484 12.086 3.49066 11.5663 3.56972 9.82688C3.64328 8.21812 3.9121 7.34498 4.13794 6.76335C4.43701 5.99334 4.7952 5.44334 5.37271 4.86583C5.95021 4.28833 6.50022 3.93082 7.27023 3.63107C7.85186 3.40419 8.72534 3.13606 10.3341 3.06216C11.8562 2.99341 12.4461 2.97278 15.5213 2.96934V2.97347ZM25.8092 5.71318C24.7161 5.71318 23.8292 6.59904 23.8292 7.69252C23.8292 8.78565 24.7161 9.67254 25.8092 9.67254C26.9023 9.67254 27.7892 8.78565 27.7892 7.69252C27.7892 6.59938 26.9023 5.7125 25.8092 5.7125V5.71318ZM17.0015 8.02665C12.322 8.02665 8.52802 11.8207 8.52802 16.5002C8.52802 21.1797 12.322 24.972 17.0015 24.972C21.6811 24.972 25.4737 21.1797 25.4737 16.5002C25.4737 11.8207 21.6807 8.02665 17.0012 8.02665H17.0015ZM17.0015 11.0001C20.039 11.0001 22.5016 13.4624 22.5016 16.5002C22.5016 19.5376 20.039 22.0002 17.0015 22.0002C13.9638 22.0002 11.5015 19.5376 11.5015 16.5002C11.5015 13.4624 13.9638 11.0001 17.0015 11.0001Z" fill="#F7F5F2"/>
</g>
</svg>
