<svg width="32" height="33" viewBox="0 0 32 33" fill="none" xmlns="http://www.w3.org/2000/svg">
<g id="twitter">
<path id="twitter_2" d="M9.89496 30.9375C21.7815 30.9375 28.2857 20.6189 28.2857 11.6858C28.2857 11.3955 28.2857 11.1052 28.2731 10.8149C29.5336 9.86488 30.6303 8.66412 31.5 7.30503C30.3403 7.84603 29.0924 8.20229 27.7815 8.37383C29.1176 7.54254 30.1387 6.20983 30.6303 4.62641C29.3824 5.40493 27.9958 5.95912 26.521 6.26261C25.3361 4.9431 23.6597 4.125 21.8067 4.125C18.2395 4.125 15.3403 7.15988 15.3403 10.8941C15.3403 11.4219 15.4034 11.9365 15.5042 12.4379C10.1345 12.1608 5.36975 9.45583 2.18067 5.36534C1.62605 6.36817 1.31092 7.52934 1.31092 8.76969C1.31092 11.1184 2.45798 13.1901 4.18487 14.404C3.12605 14.3644 2.13025 14.0609 1.2605 13.5595C1.2605 13.5859 1.2605 13.6123 1.2605 13.6519C1.2605 16.9243 3.4916 19.6689 6.44118 20.289C5.89916 20.4474 5.33193 20.5265 4.7395 20.5265C4.32353 20.5265 3.92017 20.487 3.52941 20.4078C4.34874 23.0996 6.7437 25.0525 9.56723 25.1053C7.34874 26.9262 4.56303 28.0082 1.53782 28.0082C1.02101 28.0082 0.504202 27.9818 0 27.9158C2.84874 29.8159 6.2521 30.9375 9.89496 30.9375Z" fill="#F7F5F2"/>
</g>
</svg>
