<svg width="13" height="15" viewBox="0 0 13 15" fill="none" xmlns="http://www.w3.org/2000/svg">
<g id="logo">
<path id="twitter" d="M4.2551 13.8594C9.06633 13.8594 11.699 9.40362 11.699 5.54614C11.699 5.42079 11.699 5.29544 11.6939 5.17008C12.2041 4.75984 12.648 4.24133 13 3.65444C12.5306 3.88806 12.0255 4.0419 11.4949 4.11597C12.0357 3.75701 12.449 3.18152 12.648 2.49777C12.1429 2.83395 11.5816 3.07326 10.9847 3.20431C10.5051 2.63452 9.82653 2.28125 9.07653 2.28125C7.63265 2.28125 6.45918 3.59177 6.45918 5.20427C6.45918 5.43219 6.48469 5.6544 6.52551 5.87092C4.35204 5.75127 2.42347 4.5832 1.13265 2.81685C0.908163 3.24989 0.780612 3.75131 0.780612 4.28691C0.780612 5.30114 1.2449 6.1957 1.94388 6.71991C1.51531 6.70282 1.11224 6.57177 0.760204 6.35525C0.760204 6.36664 0.760204 6.37804 0.760204 6.39513C0.760204 7.80821 1.66327 8.99337 2.85714 9.26117C2.63776 9.32955 2.40816 9.36373 2.16837 9.36373C2 9.36373 1.83673 9.34664 1.67857 9.31245C2.0102 10.4748 2.97959 11.3181 4.12245 11.3409C3.22449 12.1272 2.09694 12.5944 0.872449 12.5944C0.663266 12.5944 0.454082 12.583 0.25 12.5546C1.40306 13.3751 2.78061 13.8594 4.2551 13.8594Z" fill="#333332"/>
</g>
</svg>
