<svg width="61" height="60" viewBox="0 0 61 60" fill="none" xmlns="http://www.w3.org/2000/svg">
<g id="Group 263">
<path id="Star 9" d="M30.5 0L33.9941 16.96L45.5 4.01924L40.0459 20.4541L56.4808 15L43.54 26.5059L60.5 30L43.54 33.4941L56.4808 45L40.0459 39.5459L45.5 55.9808L33.9941 43.04L30.5 60L27.0059 43.04L15.5 55.9808L20.9541 39.5459L4.51924 45L17.46 33.4941L0.5 30L17.46 26.5059L4.51924 15L20.9541 20.4541L15.5 4.01924L27.0059 16.96L30.5 0Z" fill="#F7F5F2"/>
<path id="Star 10" d="M30.4999 18.4614L31.8438 24.9845L36.2691 20.0073L34.1714 26.3284L40.4925 24.2307L35.5153 28.656L42.0383 29.9999L35.5153 31.3438L40.4925 35.7691L34.1714 33.6714L36.2691 39.9925L31.8438 35.0153L30.4999 41.5383L29.156 35.0153L24.7307 39.9925L26.8284 33.6714L20.5073 35.7691L25.4845 31.3438L18.9614 29.9999L25.4845 28.656L20.5073 24.2307L26.8284 26.3284L24.7307 20.0073L29.156 24.9845L30.4999 18.4614Z" fill="#B73E33"/>
</g>
</svg>
