<svg width="20" height="20" viewBox="0 0 20 20" fill="none" xmlns="http://www.w3.org/2000/svg">
<g id="check_circle">
<mask id="mask0_1516_2563" style="mask-type:alpha" maskUnits="userSpaceOnUse" x="0" y="0" width="20" height="20">
<rect id="Bounding box" width="20" height="20" fill="#D9D9D9"/>
</mask>
<g mask="url(#mask0_1516_2563)">
<path id="check_circle_2" d="M8.80129 13.2564L14.1314 7.92629L13.5417 7.33654L8.80129 12.0769L6.42629 9.70192L5.83654 10.2917L8.80129 13.2564ZM10.0028 17.5C8.96567 17.5 7.9906 17.3032 7.07758 16.9096C6.16457 16.516 5.37037 15.9818 4.69498 15.3071C4.0196 14.6323 3.48493 13.8389 3.09096 12.9267C2.69699 12.0145 2.5 11.0399 2.5 10.0028C2.5 8.96567 2.6968 7.9906 3.0904 7.07758C3.48401 6.16457 4.01819 5.37037 4.69294 4.69498C5.36769 4.0196 6.16114 3.48493 7.07329 3.09096C7.98546 2.69699 8.9601 2.5 9.99721 2.5C11.0343 2.5 12.0094 2.6968 12.9224 3.0904C13.8354 3.48401 14.6296 4.01819 15.305 4.69294C15.9804 5.36769 16.5151 6.16114 16.909 7.07329C17.303 7.98546 17.5 8.9601 17.5 9.99721C17.5 11.0343 17.3032 12.0094 16.9096 12.9224C16.516 13.8354 15.9818 14.6296 15.3071 15.305C14.6323 15.9804 13.8389 16.5151 12.9267 16.909C12.0145 17.303 11.0399 17.5 10.0028 17.5ZM10 16.6667C11.8611 16.6667 13.4375 16.0208 14.7292 14.7292C16.0208 13.4375 16.6667 11.8611 16.6667 10C16.6667 8.13889 16.0208 6.5625 14.7292 5.27083C13.4375 3.97917 11.8611 3.33333 10 3.33333C8.13889 3.33333 6.5625 3.97917 5.27083 5.27083C3.97917 6.5625 3.33333 8.13889 3.33333 10C3.33333 11.8611 3.97917 13.4375 5.27083 14.7292C6.5625 16.0208 8.13889 16.6667 10 16.6667Z" fill="#333332"/>
</g>
</g>
</svg>
