<svg width="60" height="60" viewBox="0 0 60 60" fill="none" xmlns="http://www.w3.org/2000/svg">
<g id="Group 263">
<path id="Star 9" d="M30 0L33.4941 16.96L45 4.01924L39.5459 20.4541L55.9808 15L43.04 26.5059L60 30L43.04 33.4941L55.9808 45L39.5459 39.5459L45 55.9808L33.4941 43.04L30 60L26.5059 43.04L15 55.9808L20.4541 39.5459L4.01924 45L16.96 33.4941L0 30L16.96 26.5059L4.01924 15L20.4541 20.4541L15 4.01924L26.5059 16.96L30 0Z" fill="#333332"/>
<path id="Star 10" d="M29.9999 18.4619L31.3438 24.985L35.7691 20.0078L33.6714 26.3289L39.9925 24.2311L35.0153 28.6565L41.5383 30.0004L35.0153 31.3442L39.9925 35.7696L33.6714 33.6719L35.7691 39.993L31.3438 35.0158L29.9999 41.5388L28.656 35.0158L24.2307 39.993L26.3284 33.6719L20.0073 35.7696L24.9845 31.3442L18.4614 30.0004L24.9845 28.6565L20.0073 24.2311L26.3284 26.3289L24.2307 20.0078L28.656 24.985L29.9999 18.4619Z" fill="#F7F5F2"/>
</g>
</svg>
