<svg width="28" height="28" viewBox="0 0 28 28" fill="none" xmlns="http://www.w3.org/2000/svg">
<g id="local_mall">
<mask id="mask0_1021_3882" style="mask-type:alpha" maskUnits="userSpaceOnUse" x="0" y="0" width="28" height="28">
<rect id="Bounding box" width="28" height="28" fill="#D9D9D9"/>
</mask>
<g mask="url(#mask0_1021_3882)">
<path id="local_mall_2" d="M4.66663 24.5V8.16667H9.33329C9.33329 6.86688 9.78612 5.76416 10.6918 4.8585C11.5975 3.95283 12.7002 3.5 14 3.5C15.2997 3.5 16.4025 3.95283 17.3081 4.8585C18.2138 5.76416 18.6666 6.86688 18.6666 8.16667H23.3333V24.5H4.66663ZM5.83329 23.3333H22.1666V9.33333H5.83329V23.3333ZM14 15.1667C15.2997 15.1667 16.4025 14.7138 17.3081 13.8082C18.2138 12.9025 18.6666 11.7998 18.6666 10.5H17.5C17.5 11.4722 17.1597 12.2986 16.4791 12.9792C15.7986 13.6597 14.9722 14 14 14C13.0277 14 12.2013 13.6597 11.5208 12.9792C10.8402 12.2986 10.5 11.4722 10.5 10.5H9.33329C9.33329 11.7998 9.78612 12.9025 10.6918 13.8082C11.5975 14.7138 12.7002 15.1667 14 15.1667ZM10.5 8.16667H17.5C17.5 7.19444 17.1597 6.36806 16.4791 5.6875C15.7986 5.00694 14.9722 4.66667 14 4.66667C13.0277 4.66667 12.2013 5.00694 11.5208 5.6875C10.8402 6.36806 10.5 7.19444 10.5 8.16667Z" fill="#333332"/>
</g>
</g>
</svg>
