<svg width="28" height="28" viewBox="0 0 28 28" fill="none" xmlns="http://www.w3.org/2000/svg">
<g id="redeem">
<mask id="mask0_1021_3897" style="mask-type:alpha" maskUnits="userSpaceOnUse" x="0" y="0" width="28" height="28">
<rect id="Bounding box" width="28" height="28" fill="#D9D9D9"/>
</mask>
<g mask="url(#mask0_1021_3897)">
<path id="redeem_2" d="M4.66667 19.3396V22.1666H23.3333V19.3396H4.66667ZM3.5 8.21143H9.275C9.17778 8.03643 9.09589 7.8517 9.02933 7.65726C8.96275 7.46281 8.92946 7.25865 8.92946 7.04476C8.92946 6.38664 9.15382 5.83322 9.60254 5.3845C10.0513 4.93578 10.6047 4.71143 11.2628 4.71143C11.6577 4.71143 12.0229 4.81489 12.3586 5.02182C12.6942 5.22876 12.9871 5.48577 13.2372 5.79284L13.9551 6.77552L14.6731 5.79284C14.9184 5.47574 15.2113 5.21623 15.5519 5.01432C15.8925 4.81239 16.2592 4.71143 16.6522 4.71143C17.3072 4.71143 17.859 4.93578 18.3077 5.3845C18.7564 5.83322 18.9808 6.38664 18.9808 7.04476C18.9808 7.25865 18.9512 7.46281 18.8922 7.65726C18.8331 7.8517 18.7475 8.03643 18.6353 8.21143H24.5V23.3332H3.5V8.21143ZM4.66667 16.8268H23.3333V9.37809H15.8128L18.1282 12.5685L17.2038 13.2371L13.9551 8.81272L10.7064 13.2371L9.78203 12.5685L12.084 9.37809H4.66667V16.8268ZM11.2628 8.21143C11.5934 8.21143 11.8705 8.09962 12.0941 7.87601C12.3177 7.6524 12.4295 7.37531 12.4295 7.04476C12.4295 6.7142 12.3177 6.43712 12.0941 6.21351C11.8705 5.9899 11.5934 5.87809 11.2628 5.87809C10.9323 5.87809 10.6552 5.9899 10.4316 6.21351C10.208 6.43712 10.0962 6.7142 10.0962 7.04476C10.0962 7.37531 10.208 7.6524 10.4316 7.87601C10.6552 8.09962 10.9323 8.21143 11.2628 8.21143ZM16.6474 8.21143C16.978 8.21143 17.2551 8.09962 17.4787 7.87601C17.7023 7.6524 17.8141 7.37531 17.8141 7.04476C17.8141 6.7142 17.7023 6.43712 17.4787 6.21351C17.2551 5.9899 16.978 5.87809 16.6474 5.87809C16.3169 5.87809 16.0398 5.9899 15.8162 6.21351C15.5926 6.43712 15.4808 6.7142 15.4808 7.04476C15.4808 7.37531 15.5926 7.6524 15.8162 7.87601C16.0398 8.09962 16.3169 8.21143 16.6474 8.21143Z" fill="#333332"/>
</g>
</g>
</svg>
