<svg width="28" height="28" viewBox="0 0 28 28" fill="none" xmlns="http://www.w3.org/2000/svg">
<g id="sell">
<mask id="mask0_1021_3887" style="mask-type:alpha" maskUnits="userSpaceOnUse" x="0" y="0" width="28" height="28">
<rect id="Bounding box" width="28" height="28" fill="#D9D9D9"/>
</mask>
<g mask="url(#mask0_1021_3887)">
<path id="sell_2" d="M14.9849 24.9913L3.5 13.5064V3.5H13.5064L24.9846 14.9917L14.9849 24.9913ZM14.9749 23.3333L23.3266 14.9917L13.0184 4.66667H4.66667V13.0083L14.9749 23.3333ZM7.58071 8.75C7.90405 8.75 8.17976 8.63683 8.40785 8.4105C8.63595 8.18415 8.75 7.90931 8.75 7.58599C8.75 7.26263 8.63683 6.98691 8.4105 6.75882C8.18417 6.53072 7.90932 6.41667 7.58596 6.41667C7.26262 6.41667 6.9869 6.52983 6.75882 6.75617C6.53072 6.98252 6.41667 7.25736 6.41667 7.58068C6.41667 7.90404 6.52983 8.17976 6.75617 8.40785C6.9825 8.63595 7.25735 8.75 7.58071 8.75Z" fill="#333332"/>
</g>
</g>
</svg>
