<?xml version="1.0" encoding="utf-8"?><svg version="1.1" id="Layer_1" xmlns="http://www.w3.org/2000/svg" xmlns:xlink="http://www.w3.org/1999/xlink" x="0px" y="0px" viewBox="0 0 107.74 122.88" style="enable-background:new 0 0 107.74 122.88" xml:space="preserve"><style type="text/css">.st0{fill-rule:evenodd;clip-rule:evenodd;}</style><g><path class="st0" d="M91.07,94.36l1.84,3.18c1.16,2,0.52,2.56-1.48,2.56h-1.21v22.16c0,0.34-0.28,0.62-0.62,0.62h-1.86 c-0.34,0-0.62-0.28-0.62-0.62V100.1h-1.03h-1.03c-1.5,0.03-1.4-1.42-0.77-2.44l2.05-3.29C76.91,93.01,69.6,83.42,69.6,71.79 c0-0.16,0-0.31,0-0.47c0.13-0.08,0.26-0.15,0.39-0.23l0.19-0.11l0.02-0.01c0.24-0.15,0.49-0.3,0.73-0.45l0.08-0.05 c0.11-0.07,0.23-0.15,0.34-0.22l0.19-0.13c0.37-0.25,0.74-0.51,1.1-0.77l0.04-0.03l0.15-0.11l0.03-0.02l0.16-0.12l0.05-0.04 l0.14-0.11l0.18-0.14l0.17-0.13l0.02-0.01l0.15-0.12l0.05-0.04l0.15-0.12l0.17-0.14l0.01-0.01l0.18-0.15l0.03-0.03l0.14-0.12 l0.02-0.01l0.12-0.1l0.09-0.07c0.1-0.09,0.2-0.17,0.3-0.26l0.17-0.15l0.03-0.03l0.14-0.12l0.03-0.03l0.11-0.1l0.05-0.05 c0.11-0.1,0.21-0.19,0.31-0.29l0.17-0.16l0.03-0.03l0.06-0.05l0.12-0.11c0.1-0.09,0.2-0.19,0.3-0.29l0.16-0.16l0.01-0.01l0.17-0.16 l0.15-0.15l0.02-0.02l0.15-0.15l0.03-0.03l0.15-0.15l0.16-0.16l0.01-0.01l0.16-0.17l0.04-0.04l0.04-0.05l0.13-0.14l0.03-0.03 l0.08-0.09l0.11-0.13l0.04-0.05l0.15-0.17l0,0l0.16-0.18l0.11-0.13l0.04-0.05l0.07-0.09l0.04-0.04l0.11-0.13l0.04-0.05l0.04-0.05 l0.15-0.18l0,0l0.15-0.18l0.01-0.01l0.1-0.12l0.04-0.05l0.07-0.09l0.02-0.03l0.15-0.19l0.01-0.02l0.18-0.23l0,0l0.15-0.19 l0.01-0.01l0.08-0.1l0.11-0.15l0.04-0.05l0.13-0.17l0.04-0.05l0.04-0.05l0.14-0.19c0.08-0.11,0.16-0.21,0.23-0.32l0.01-0.02l0,0 l0.01-0.01l0.22-0.3l0.02-0.02l0,0l0.01-0.01c0.07-0.1,0.15-0.21,0.22-0.32l0.01-0.01l0-0.01c0.07-0.1,0.14-0.21,0.21-0.31 l0.02-0.03l0.01-0.01l0-0.01c0.07-0.1,0.13-0.2,0.2-0.3l0.02-0.04l0.01-0.01l0,0c0.15-0.23,0.3-0.46,0.45-0.69l0.01-0.02l0.19-0.3 l0.02-0.04l0.01-0.02l0.18-0.29l0.07-0.11l0.16-0.27l0.03-0.04l0.01-0.02l0.18-0.31l0.02-0.04l0.01-0.03l0.15-0.27l0.09-0.16 l0.12-0.22l0.05-0.1l0.18-0.33l0.01-0.01l0.02-0.03l0.15-0.28l0.07-0.14l0.13-0.24l0.03-0.06l0.02-0.04l0.13-0.26l0.08-0.17 l0.1-0.2l0.07-0.14l0.09-0.2l0.02-0.05l0.07-0.15l0.12-0.26l0.06-0.13l0,0l0.09-0.2l0.02-0.05l0.07-0.14l0.09-0.2l0.02-0.04 l0.07-0.16l0.09-0.2l0.01-0.03l0.08-0.2l0.09-0.22l0.09-0.22l0.07-0.18l0.06-0.15l0.08-0.2l0.02-0.04l0.06-0.16l0.08-0.2l0.08-0.21 l0.08-0.21l0.01-0.03l0.07-0.18l0.08-0.21l0.07-0.21l0.07-0.21l0-0.01l0.07-0.2l0.07-0.21l0-0.01l0.07-0.2l0.07-0.21l0,0l0.07-0.21 c0.62-0.07,1.25-0.11,1.88-0.11c10.53,0,19.07,10.18,19.07,22.75C107.74,83.39,100.47,92.96,91.07,94.36L91.07,94.36z M53.87,0 C70,0,83.08,15.6,83.08,34.84c0,17.76-11.14,32.42-25.54,34.57l2.82,4.87c1.77,3.06,0.79,3.92-2.26,3.92h-1.85v43.73 c0,0.52-0.43,0.95-0.95,0.95h-2.85c-0.52,0-0.95-0.43-0.95-0.95V78.2h-1.58h-1.57c-2.3,0.05-2.14-2.17-1.17-3.73l3.14-5.04 c-14.46-2.09-25.66-16.78-25.66-34.59C24.66,15.6,37.74,0,53.87,0L53.87,0z M71.01,70.46c0.11-0.07,0.23-0.15,0.34-0.22 L71.01,70.46L71.01,70.46z M74.7,67.7c0.1-0.09,0.2-0.17,0.3-0.26L74.7,67.7L74.7,67.7z M75.54,66.96c0.11-0.1,0.21-0.19,0.31-0.29 L75.54,66.96L75.54,66.96z M76.24,66.31c0.1-0.09,0.2-0.19,0.3-0.29L76.24,66.31L76.24,66.31z M19.07,49.04 c0.63,0,1.26,0.04,1.88,0.11l0.07,0.21l0.07,0.21l0,0l0.07,0.21L21.23,50l0,0.01l0.07,0.2l0.07,0.21l0.01,0.02l0.06,0.17l0,0.01 l0.08,0.21l0,0.01l0.07,0.19l0,0.01l0.08,0.21l0.08,0.2l0,0.01l0.08,0.21l0.01,0.01l0.06,0.16l0.01,0.03l0.08,0.2l0.07,0.18 l0.01,0.02l0.08,0.2l0.08,0.2l0,0.01l0.09,0.2l0,0.01l0.08,0.19l0.09,0.2l0.08,0.17l0.01,0.03l0.09,0.2l0.09,0.2l0.09,0.2 l0.08,0.17l0.01,0.03l0.09,0.2l0.08,0.18l0.01,0.02l0.09,0.2l0.01,0.01l0.06,0.12l0.13,0.27l0.06,0.12l0.14,0.28l0.05,0.1 l0.11,0.22l0.1,0.19l0.13,0.24l0.03,0.05l0.03,0.05l0.15,0.28l0.07,0.12l0.14,0.26l0.02,0.04l0.02,0.04l0.17,0.29l0.02,0.04 l0.02,0.03l0.18,0.3l0.02,0.03l0.02,0.03l0.18,0.3l0.02,0.03l0.01,0.02c0.06,0.11,0.13,0.21,0.2,0.32l0.02,0.03l0.01,0.02 c0.06,0.1,0.13,0.21,0.2,0.31l0.01,0.02l0.02,0.03l0.2,0.31l0.01,0.02l0.01,0.01l0.21,0.32l0.01,0.02l0.01,0.02l0.21,0.31 l0.01,0.01l0.01,0.01c0.07,0.11,0.15,0.22,0.23,0.33l0.01,0.01l0.01,0.02c0.07,0.11,0.15,0.21,0.23,0.32l0,0.01 c0.08,0.11,0.16,0.23,0.24,0.34l0,0c0.08,0.11,0.16,0.22,0.25,0.34l0.14,0.19l0.04,0.05l0.11,0.14l0.03,0.05l0.07,0.09l0.12,0.15 l0.04,0.05l0.17,0.22l0,0l0.18,0.22l0.01,0.01l0.11,0.14l0.03,0.04l0.08,0.1l0.12,0.14l0.04,0.05l0.18,0.21l0,0l0.15,0.18l0.1,0.12 l0.1,0.12l0.06,0.06l0.12,0.13l0.05,0.05l0.04,0.05l0.15,0.17l0.01,0.01l0.19,0.21l0,0l0.17,0.18l0.03,0.03l0.09,0.09l0.11,0.12 l0.05,0.05l0.15,0.16l0.01,0.01l0.19,0.2l0,0l0.13,0.13l0.02,0.02l0.12,0.12l0.05,0.05l0.12,0.12l0.01,0.01l0.16,0.16l0.01,0.01 l0.19,0.19l0,0l0.13,0.13l0.02,0.02l0.11,0.11l0.03,0.03l0.12,0.11l0.02,0.02l0.15,0.14l0.05,0.04l0.01,0.01l0.17,0.16l0.03,0.03 l0.04,0.04l0.15,0.13l0.02,0.02l0.1,0.09l0.12,0.1l0.06,0.05l0.06,0.05l0.11,0.1l0.17,0.15l0.03,0.03l0.15,0.12l0.03,0.02l0.11,0.1 l0.08,0.07l0.12,0.1l0.05,0.04l0.14,0.11l0.18,0.14l0.03,0.02l0.05,0.04l0.14,0.11l0.11,0.08l0.06,0.05l0.13,0.1l0.02,0.02 l0.16,0.13l0.02,0.01l0.18,0.14l0.15,0.12l0.04,0.03l0.17,0.12l0.01,0.01c0.12,0.09,0.24,0.18,0.36,0.26l0.19,0.13l0.14,0.1 l0.05,0.03l0.07,0.05l0.06,0.04l0.12,0.08l0.1,0.07l0.09,0.06l0.13,0.09l0.19,0.13l0.02,0.02l0.17,0.11l0,0l0.17,0.11L37,70.63 l0.14,0.09l0.02,0.02l0.17,0.1l0.03,0.02l0.19,0.12l0.15,0.09l0.06,0.04l0.12,0.07l0.11,0.07l0.13,0.07l0.02,0.01 c0,0.16,0.01,0.32,0.01,0.47c0,11.6-7.27,21.16-16.67,22.57l1.84,3.18c1.16,2,0.52,2.56-1.48,2.56h-1.21v22.16 c0,0.34-0.28,0.62-0.62,0.62h-1.86c-0.34,0-0.62-0.28-0.62-0.62V100.1h-1.03h-1.03c-1.5,0.03-1.4-1.42-0.76-2.44l2.05-3.29 C7.31,93.01,0,83.42,0,71.79C0,59.23,8.54,49.04,19.07,49.04L19.07,49.04z M35.1,69.33c0.12,0.09,0.24,0.18,0.36,0.26L35.1,69.33 L35.1,69.33z"/></g></svg>