<svg width="24" height="24" viewBox="0 0 24 24" fill="none" xmlns="http://www.w3.org/2000/svg">
<mask id="mask0_972_5286" style="mask-type:alpha" maskUnits="userSpaceOnUse" x="0" y="0" width="24" height="24">
<rect width="24" height="24" fill="#D9D9D9"/>
</mask>
<g mask="url(#mask0_972_5286)">
<path d="M15.6535 12.077C14.1509 10.827 12.8907 9.62669 11.8727 8.47606C10.8548 7.32541 10.3458 6.27957 10.3458 5.33853C10.3458 4.59752 10.6016 3.97124 11.1131 3.45971C11.6246 2.94816 12.2509 2.69238 12.9919 2.69238C13.4612 2.69238 13.9259 2.81771 14.3862 3.06836C14.8464 3.31899 15.2689 3.70007 15.6535 4.21161C16.0381 3.70007 16.4605 3.31899 16.9208 3.06836C17.3811 2.81771 17.8458 2.69238 18.315 2.69238C19.056 2.69238 19.6823 2.94816 20.1939 3.45971C20.7054 3.97124 20.9612 4.59752 20.9612 5.33853C20.9612 6.27957 20.4522 7.32541 19.4343 8.47606C18.4163 9.62669 17.1561 10.827 15.6535 12.077ZM2.03809 20.5386V12.3847H5.03809V20.5386H2.03809ZM13.6535 21.3462L6.03811 19.1212V12.3847H8.41694L15.7689 15.0962V16.6924H12.7689L10.1727 15.7674L9.86119 16.5193L12.7304 17.4616H20.6535V19.0385L13.6535 21.3462Z" fill="#1C1B1F"/>
</g>
</svg>
