<svg width="24" height="24" viewBox="0 0 24 24" fill="none" xmlns="http://www.w3.org/2000/svg">
<mask id="mask0_972_5281" style="mask-type:alpha" maskUnits="userSpaceOnUse" x="0" y="0" width="24" height="24">
<rect width="24" height="24" fill="#D9D9D9"/>
</mask>
<g mask="url(#mask0_972_5281)">
<path d="M2.01855 19.3845V15.8845C2.01855 15.4845 2.15029 15.1409 2.41375 14.8537C2.6772 14.5665 3.0006 14.4101 3.38395 14.3845H6.27433C6.54356 14.3845 6.79933 14.4486 7.04163 14.5768C7.28395 14.705 7.48395 14.8915 7.64163 15.1364C8.15061 15.8505 8.78491 16.4037 9.54453 16.796C10.3041 17.1883 11.1224 17.3845 11.9993 17.3845C12.8801 17.3845 13.7035 17.1883 14.4695 16.796C15.2355 16.4037 15.8711 15.8505 16.3763 15.1364C16.5416 14.8915 16.7445 14.705 16.9849 14.5768C17.2253 14.4486 17.4718 14.3845 17.7243 14.3845H20.6147C21.0019 14.4101 21.3295 14.5665 21.5974 14.8537C21.8654 15.1409 21.9993 15.4845 21.9993 15.8845V19.3845H15.9993V16.9556C15.4416 17.4108 14.8221 17.7627 14.1407 18.0114C13.4593 18.2601 12.7455 18.3845 11.9993 18.3845C11.2698 18.3845 10.5666 18.2624 9.88971 18.0181C9.21279 17.7739 8.58907 17.4242 8.01856 16.9691V19.3845H2.01855ZM11.9993 15.6152C11.4301 15.6152 10.891 15.4822 10.382 15.2162C9.87305 14.9502 9.44612 14.5845 9.10126 14.1191C8.86921 13.7922 8.59516 13.5143 8.27913 13.2854C7.96311 13.0566 7.61921 12.8909 7.24741 12.7883C7.72946 12.364 8.43715 12.0431 9.37048 11.8258C10.3038 11.6085 11.1801 11.4999 11.9993 11.4999C12.8186 11.4999 13.6948 11.6085 14.6282 11.8258C15.5615 12.0431 16.2756 12.364 16.7705 12.7883C16.4025 12.8909 16.0596 13.0566 15.7416 13.2854C15.4237 13.5143 15.1487 13.7922 14.9166 14.1191C14.5884 14.6011 14.1666 14.971 13.6513 15.2287C13.1359 15.4864 12.5852 15.6152 11.9993 15.6152ZM4.57625 12.6152C3.89675 12.6152 3.31021 12.3684 2.81663 11.8749C2.32305 11.3813 2.07625 10.7947 2.07625 10.1152C2.07625 9.41908 2.32305 8.82839 2.81663 8.34314C3.31021 7.85787 3.89675 7.61523 4.57625 7.61523C5.2724 7.61523 5.86311 7.85787 6.34836 8.34314C6.83362 8.82839 7.07626 9.41908 7.07626 10.1152C7.07626 10.7947 6.83362 11.3813 6.34836 11.8749C5.86311 12.3684 5.2724 12.6152 4.57625 12.6152ZM19.4224 12.6152C18.7429 12.6152 18.1564 12.3684 17.6628 11.8749C17.1692 11.3813 16.9224 10.7947 16.9224 10.1152C16.9224 9.41908 17.1692 8.82839 17.6628 8.34314C18.1564 7.85787 18.7429 7.61523 19.4224 7.61523C20.1186 7.61523 20.7093 7.85787 21.1945 8.34314C21.6798 8.82839 21.9224 9.41908 21.9224 10.1152C21.9224 10.7947 21.6798 11.3813 21.1945 11.8749C20.7093 12.3684 20.1186 12.6152 19.4224 12.6152ZM11.9993 9.61523C11.3198 9.61523 10.7333 9.36844 10.2397 8.87486C9.74612 8.38128 9.49933 7.79473 9.49933 7.11523C9.49933 6.41908 9.74612 5.82839 10.2397 5.34314C10.7333 4.85787 11.3198 4.61523 11.9993 4.61523C12.6955 4.61523 13.2862 4.85787 13.7715 5.34314C14.2567 5.82839 14.4993 6.41908 14.4993 7.11523C14.4993 7.79473 14.2567 8.38128 13.7715 8.87486C13.2862 9.36844 12.6955 9.61523 11.9993 9.61523Z" fill="#333332"/>
</g>
</svg>
