<?xml version="1.0" encoding="utf-8"?><svg version="1.1" id="Layer_1" xmlns="http://www.w3.org/2000/svg" xmlns:xlink="http://www.w3.org/1999/xlink" x="0px" y="0px" viewBox="0 0 72.55 122.88" style="enable-background:new 0 0 72.55 122.88" xml:space="preserve"><style type="text/css">.st0{fill-rule:evenodd;clip-rule:evenodd;}</style><g><path class="st0" d="M39.33,38.96c6.08-3.59,12.57-6.74,18.96-9.56c4.59,14.86,4.17,27.07-4.35,34.87 c-5.52,3.91-10.57,6.23-15.1,6.83v51.78h-4.81V71.05c-0.61-0.1-1.22-0.24-1.81-0.42c-9.09-2.76-8.23-11.02-4.8-18.38 C30.77,45.07,32.84,42.8,39.33,38.96L39.33,38.96z M61.45,101.68c-7.47,1.67-14.52,4.97-20.75,10.49 c2.09-11.56,12.93-16.06,23.4-15.57c2.8,0.13,5.62,0.66,8.46,1.49c-2.02,4.36-4.5,8.09-7.52,11.1c-4.86,4.84-9.38,6.94-16.14,7.17 c-2.34,0.08-4.67-0.08-6.99-0.45C47.77,109.76,54.32,105.1,61.45,101.68L61.45,101.68z M11,90.45c7.42,1.88,14.37,5.38,20.45,11.07 C29.68,89.9,18.97,85.1,8.5,85.3C5.7,85.35,2.86,85.8,0,86.55c1.9,4.41,4.27,8.22,7.2,11.31c4.72,4.98,9.18,7.2,15.93,7.62 c2.33,0.15,4.67,0.05,7-0.26C24.44,98.91,18.02,94.07,11,90.45L11,90.45z M59.73,84.18c-1.34-6.42-4.08-10.73-8.09-14.06 c-3.04,2.09-6.07,4.69-10.08,4.01C45.23,80.44,56.51,78.68,59.73,84.18L59.73,84.18z M13.44,84.18c1.34-6.42,4.08-10.73,8.09-14.06 c3.04,2.09,6.07,4.69,10.08,4.01C27.94,80.44,16.66,78.68,13.44,84.18L13.44,84.18z M51.04,13.45c-1.33-4.12-3.94-6.1-7.84-8.06 c2.82-1.27,5.22-3.71,7.57-1.29C53.11,6.5,51.65,11.1,51.04,13.45L51.04,13.45z M36.46,10.64c2.33-5.19,10.87,0.29,10.66,4.87 l-0.08,1.7c-1.82,0.15-3.58,0.12-5.4-0.06C37.02,16.69,33.87,16.43,36.46,10.64L36.46,10.64z M16.69,5.3c-0.71,2.1-0.82,3.9-0.37,6 c1.11,5.1,6.14,9.51,10.32,12.28c2.22,1.47,4.57,2.62,7.07,3.38l7.97,0.05L29.9,40.22c-0.4-2.32-1.4-4.4-2.62-6.42 c-3.49-5.77-8.03-7.74-12.21-10.45C5.23,16.98,4.83,10.48,16.69,5.3L16.69,5.3z M31.37,13.22C33.57,6.35,37.36,2.7,43.26,0.6 C35-2.03,25.69,4.32,31.37,13.22L31.37,13.22z M26.92,0.55c-5.4,13.56,3.34,19.22,19.86,20.52c-2.87,1.09-5.69,1.6-8.46,1.55 c-4.83-0.08-12-2.35-15.08-6.25C18.86,10.8,18.49,1.91,26.92,0.55L26.92,0.55z M52.74,27.28c9.53-6.11,20.03-20.95,2.99-22.8 C65.18,15.48,23.76,45.86,52.74,27.28L52.74,27.28z M12.68,32.63c0.42-1.84,0.98-3.65,1.73-5.41c2.47,1.47,4.72,3.27,6.66,5.55 c1.62,1.9,3.04,4.13,4.19,6.77c0.64,1.47,0.9,2.87,0.75,4.19c-0.87,7.6-7.33,7.12-5.16,23.83c-2.26-1.41-4.35-3.53-6.18-6.81 C9.86,52.09,10.5,42.09,12.68,32.63L12.68,32.63z"/></g></svg>