<?xml version="1.0" encoding="utf-8"?>
<!-- Generator: Adobe Illustrator 24.2.1, SVG Export Plug-In . SVG Version: 6.00 Build 0)  -->
<svg version="1.1" id="Layer_1" xmlns="http://www.w3.org/2000/svg" xmlns:xlink="http://www.w3.org/1999/xlink" x="0px" y="0px"
	 viewBox="0 0 122.88 81.87" style="enable-background:new 0 0 122.88 81.87;" xml:space="preserve">
<style type="text/css">
	.st0{fill-rule:evenodd;clip-rule:evenodd;}
</style>
<g>
	<path class="st0" d="M21.11,40.45l3.92-0.1l1.86-0.05l2.82,3.27c0.66,0.77,1.34,1.54,2.08,2.28c-0.52,0.78-2.87,2.77-4.95,4.53
		c-0.92,0.78-1.8,1.52-2.47,2.13C19.07,54.58,13.9,56.68,9.9,59.2c-3.07,1.92-4.66,3.38-5.9,5.71c-3.28,6.16-2.53,5.33-3.87,11.64
		c-0.41,5.56-0.01,5.28,3.9,5.21c2.82-0.05,5.79-0.07,8.88-0.09l-2.75-21.01c4.94-2.27,8.4-4.25,14.23-6.29
		c7.16,14.45,29.96,11.94,32.41-0.63c5.11,1.65,10.04,4.57,15.1,6.7l-3.14,21.42c3.24-0.02,6.36-0.05,9.33-0.11
		c4.17-0.08,4.21,0.11,3.79-4.23c-0.46-4.85-2.01-8.95-3.97-12.63c-1.24-2.33-2.83-3.78-5.9-5.71c-4.05-2.54-9.28-4.67-14.63-6.74
		c-0.48-0.43-1.02-0.9-1.58-1.39c-1.76-1.54-3.73-3.26-4.53-4.25c1.25-1.1,2.31-2.36,3.36-3.62l1.77-2.13
		c0.03-0.03,0.16-0.19,0.36-0.42c0.1-0.12,0.21-0.24,0.32-0.37l3.87,0c5.7-12.2,2.08-30.32-9.57-38C47.79-0.09,45.22,0,41.03,0
		c-4.81,0-7.26,0.15-11.38,2.88c-6.07,4.01-9.79,10.96-11.36,20.6C17.96,28.28,17.75,36.58,21.11,40.45L21.11,40.45L21.11,40.45z
		 M74.78,48.66l3.09-0.08l1.46-0.04l2.22,2.58c0.52,0.61,1.05,1.22,1.64,1.8c-0.41,0.62-2.27,2.19-3.91,3.58
		c-0.54,0.45-1.67,1.57-2.25,1.8c2.83,11.64,23.68,12.25,25.91,0.85c4.03,1.3,7.93,3.61,11.92,5.29l-2.48,16.9
		c2.56-0.02,5.02-0.04,7.37-0.09c3.29-0.06,3.32,0.08,2.99-3.34c-0.36-3.83-1.59-7.06-3.14-9.96c-0.98-1.84-2.23-2.98-4.66-4.51
		c-3.19-2-7.32-3.68-11.55-5.32c-0.38-0.34-0.81-0.71-1.24-1.1c-1.39-1.21-2.94-2.58-3.57-3.36c0.99-0.87,1.82-1.87,2.65-2.86
		l1.4-1.68c0.02-0.03,0.13-0.15,0.28-0.33c0.08-0.09,0.16-0.19,0.25-0.3h3.05c4.5-9.63,1.64-23.93-7.56-29.99
		c-2.83-1.87-4.86-1.79-8.17-1.79c-3.79,0-5.73,0.12-8.98,2.27c-4.79,3.17-7.73,8.65-8.97,16.26C72.3,39.05,72.13,45.6,74.78,48.66
		L74.78,48.66L74.78,48.66z M80.06,47.28c-2.52-8.74-1.29-16.78,5.6-23.66c1.22,3.95,3.96,7.22,8.63,9.63
		c2.23,1.65,4.39,3.66,6.48,5.95c0.37-1.52-1.04-3.38-2.76-5.29c1.59,0.78,3.04,1.88,4.07,3.98c1.2,2.45,1.18,4.51,0.78,7.16
		c-0.12,0.77-0.27,1.5-0.48,2.2c-0.14,0.05-0.26,0.13-0.34,0.24c-0.19,0.23-0.38,0.46-0.55,0.66c-0.05,0.06-0.1,0.12-0.29,0.35
		l-1.4,1.68c-1.06,1.28-2.14,2.56-3.51,3.49c-1.3,0.89-2.9,1.48-5.1,1.48c-2.02-0.01-3.55-0.57-4.81-1.42
		c-1.32-0.88-2.39-2.09-3.41-3.27l-2.55-2.96C80.34,47.41,80.21,47.33,80.06,47.28L80.06,47.28L80.06,47.28z M100.86,57.75
		c-1.32-1.15-2.7-2.39-3.37-3.21l-0.05,0.03c-1.59,1.09-3.55,1.81-6.24,1.81c-2.51-0.01-4.39-0.71-5.94-1.73
		c-0.37-0.25-0.72-0.51-1.04-0.79c-0.77,0.96-2.48,2.41-4.02,3.72l-0.34,0.28C79.62,66.5,98.34,69.12,100.86,57.75L100.86,57.75
		L100.86,57.75z M27.8,38.7c-3.19-11.08-1.64-21.26,7.09-29.98c1.55,5.01,5.02,9.15,10.94,12.2c2.83,2.1,5.56,4.63,8.21,7.54
		c0.47-1.93-1.32-4.28-3.49-6.7c2.01,0.99,3.85,2.38,5.16,5.05c1.52,3.1,1.5,5.71,0.99,9.07c-0.15,0.97-0.35,1.9-0.61,2.79
		c-0.17,0.07-0.33,0.17-0.43,0.3c-0.24,0.29-0.48,0.58-0.7,0.83c-0.07,0.08-0.13,0.15-0.37,0.44l-1.77,2.13
		c-1.35,1.62-2.72,3.24-4.45,4.43c-1.65,1.13-3.68,1.88-6.46,1.87c-2.56-0.01-4.5-0.73-6.1-1.8c-1.68-1.11-3.02-2.64-4.32-4.14
		L28.27,39C28.16,38.86,27.99,38.76,27.8,38.7L27.8,38.7L27.8,38.7z M54.15,51.97c-1.67-1.46-3.42-3.02-4.27-4.07l-0.06,0.04
		c-2.02,1.38-4.5,2.3-7.9,2.29c-3.18-0.01-5.57-0.89-7.52-2.2c-0.47-0.31-0.91-0.65-1.32-0.99c-0.97,1.22-3.14,3.06-5.09,4.71
		l-0.43,0.36C27.24,63.06,50.96,66.38,54.15,51.97L54.15,51.97L54.15,51.97z"/>
</g>
</svg>
